# xmcd
#
# Track frame offsets: 
#        150
#        34890
#        75655
#        91765
#        118867
#
# Disc length: 1852 seconds
#
# Revision: 3
# Processed by: cddbd v1.5.2PL0 Copyright (c) Steve Scherf et al.
# Submitted via: ExactAudioCopy v0.95b3
#
DISCID=34073a05
DTITLE=Hubert Laws - The Rite Of Spring (Remaster)
DYEAR=1971
DGENRE=Jazz
TTITLE0=Pavane
TTITLE1=Rite Of Spring
TTITLE2=Syrinx
TTITLE3=Brandenburg Concerto No. 3, First Movement
TTITLE4=Brandenburg Concerto No. 3, Second Movement
EXTD=YEAR: 1976
EXTT0=
EXTT1=
EXTT2=
EXTT3=
EXTT4=
PLAYORDER=
